<svg xmlns="http://www.w3.org/2000/svg" width="128" height="128" viewBox="0 0 128 128" version="1.1">
	<path d="M 48.216 2.019 C 25.585 7.948, 7.785 25.881, 1.972 48.609 C -3.179 68.749, 2.421 91.179, 16.477 106.711 C 22.929 113.841, 29.834 118.887, 30.862 117.223 C 31.254 116.589, 33.114 111.609, 34.996 106.157 L 38.416 96.244 35.616 89.288 C 33.699 84.527, 32.770 80.341, 32.670 76.027 L 32.525 69.723 37.763 65.032 L 43 60.341 43 52.479 C 43 48.155, 43.522 39.470, 44.160 33.179 C 45.119 23.719, 45.714 21.287, 47.599 19.120 C 49.470 16.970, 50.204 16.700, 51.689 17.612 C 53.300 18.600, 53.509 20.372, 53.583 33.630 C 53.629 41.828, 53.974 49.762, 54.351 51.261 L 55.034 53.985 58.724 52.008 C 61.908 50.301, 62.693 50.215, 64.457 51.380 C 65.581 52.122, 66.635 53.803, 66.799 55.115 C 67.406 59.959, 67.825 60.283, 70.632 58.075 C 72.083 56.934, 73.852 56, 74.563 56 C 77.037 56, 79 59.129, 79 63.071 C 79 65.232, 79.359 67, 79.797 67 C 81.130 67, 87.450 59.913, 92.963 52.237 C 98.770 44.152, 101.315 42.187, 103.564 44.053 C 106.248 46.281, 105.010 49.712, 96.865 62.614 C 92.391 69.701, 85.900 80.225, 82.442 86 C 78.983 91.775, 73.876 99.172, 71.092 102.438 C 67.760 106.349, 65.049 110.958, 63.153 115.938 C 58.116 129.173, 57.910 128, 65.273 128 C 87.396 128, 110.643 113.452, 120.732 93.295 C 122.988 88.788, 125.393 82.490, 126.075 79.300 C 126.758 76.110, 127.695 73.072, 128.158 72.550 C 129.150 71.430, 129.316 53.351, 128.325 54.342 C 127.954 54.713, 126.845 51.847, 125.861 47.974 C 120.220 25.761, 102.041 7.765, 79.391 1.972 C 69.612 -0.529, 57.872 -0.511, 48.216 2.019 M 0.360 64 C 0.360 69.225, 0.529 71.362, 0.735 68.750 C 0.941 66.138, 0.941 61.862, 0.735 59.250 C 0.529 56.638, 0.360 58.775, 0.360 64" stroke="none" fill="black" fill-rule="evenodd"/>
</svg>